<svg width="161" height="19" viewBox="0 0 161 19" fill="none" xmlns="http://www.w3.org/2000/svg">
<path d="M1.952 14.28C3.488 12.952 4.696 11.864 5.576 11.016C6.472 10.152 7.216 9.256 7.808 8.328C8.4 7.4 8.696 6.472 8.696 5.544C8.696 4.584 8.464 3.832 8 3.288C7.552 2.744 6.84 2.472 5.864 2.472C4.92 2.472 4.184 2.776 3.656 3.384C3.144 3.976 2.872 4.776 2.84 5.784H0.2C0.248 3.96 0.792 2.568 1.832 1.608C2.888 0.631999 4.224 0.144 5.84 0.144C7.584 0.144 8.944 0.624 9.92 1.584C10.912 2.544 11.408 3.824 11.408 5.424C11.408 6.576 11.112 7.688 10.52 8.76C9.944 9.816 9.248 10.768 8.432 11.616C7.632 12.448 6.608 13.416 5.36 14.52L4.28 15.48H11.888V17.76H0.224V15.768L1.952 14.28ZM14.2916 9.024C14.2916 6.256 14.7556 4.096 15.6836 2.544C16.6276 0.975999 18.2436 0.191999 20.5316 0.191999C22.8196 0.191999 24.4276 0.975999 25.3556 2.544C26.2996 4.096 26.7716 6.256 26.7716 9.024C26.7716 11.824 26.2996 14.016 25.3556 15.6C24.4276 17.168 22.8196 17.952 20.5316 17.952C18.2436 17.952 16.6276 17.168 15.6836 15.6C14.7556 14.016 14.2916 11.824 14.2916 9.024ZM24.0836 9.024C24.0836 7.728 23.9956 6.632 23.8196 5.736C23.6596 4.84 23.3236 4.112 22.8116 3.552C22.2996 2.976 21.5396 2.688 20.5316 2.688C19.5236 2.688 18.7636 2.976 18.2516 3.552C17.7396 4.112 17.3956 4.84 17.2196 5.736C17.0596 6.632 16.9796 7.728 16.9796 9.024C16.9796 10.368 17.0596 11.496 17.2196 12.408C17.3796 13.32 17.7156 14.056 18.2276 14.616C18.7556 15.176 19.5236 15.456 20.5316 15.456C21.5396 15.456 22.2996 15.176 22.8116 14.616C23.3396 14.056 23.6836 13.32 23.8436 12.408C24.0036 11.496 24.0836 10.368 24.0836 9.024ZM31.1786 14.28C32.7146 12.952 33.9226 11.864 34.8026 11.016C35.6986 10.152 36.4426 9.256 37.0346 8.328C37.6266 7.4 37.9226 6.472 37.9226 5.544C37.9226 4.584 37.6906 3.832 37.2266 3.288C36.7786 2.744 36.0666 2.472 35.0906 2.472C34.1466 2.472 33.4106 2.776 32.8826 3.384C32.3706 3.976 32.0986 4.776 32.0666 5.784H29.4266C29.4746 3.96 30.0186 2.568 31.0586 1.608C32.1146 0.631999 33.4506 0.144 35.0666 0.144C36.8106 0.144 38.1706 0.624 39.1466 1.584C40.1386 2.544 40.6346 3.824 40.6346 5.424C40.6346 6.576 40.3386 7.688 39.7466 8.76C39.1706 9.816 38.4746 10.768 37.6586 11.616C36.8586 12.448 35.8346 13.416 34.5866 14.52L33.5066 15.48H41.1146V17.76H29.4506V15.768L31.1786 14.28ZM43.1821 14.352V12.288L51.2461 0.719999H54.5581V11.976H56.7901V14.352H54.5581V18H51.8701V14.352H43.1821ZM51.9901 3.504L46.3261 11.976H51.9901V3.504ZM75.8036 8.16V10.464H65.9396V8.16H75.8036ZM95.981 14.592H88.997L87.797 18H84.941L90.917 1.296H94.085L100.061 18H97.181L95.981 14.592ZM95.213 12.36L92.501 4.608L89.765 12.36H95.213ZM101.747 11.376C101.747 10.016 102.019 8.824 102.563 7.8C103.123 6.76 103.891 5.96 104.867 5.4C105.843 4.84 106.963 4.56 108.227 4.56C109.827 4.56 111.147 4.944 112.187 5.712C113.243 6.464 113.955 7.544 114.323 8.952H111.371C111.131 8.296 110.747 7.784 110.219 7.416C109.691 7.048 109.027 6.864 108.227 6.864C107.107 6.864 106.211 7.264 105.539 8.064C104.883 8.848 104.555 9.952 104.555 11.376C104.555 12.8 104.883 13.912 105.539 14.712C106.211 15.512 107.107 15.912 108.227 15.912C109.811 15.912 110.859 15.216 111.371 13.824H114.323C113.939 15.168 113.219 16.24 112.163 17.04C111.107 17.824 109.795 18.216 108.227 18.216C106.963 18.216 105.843 17.936 104.867 17.376C103.891 16.8 103.123 16 102.563 14.976C102.019 13.936 101.747 12.736 101.747 11.376ZM120.242 7.008V14.328C120.242 14.824 120.354 15.184 120.578 15.408C120.818 15.616 121.218 15.72 121.778 15.72H123.458V18H121.298C120.066 18 119.122 17.712 118.466 17.136C117.81 16.56 117.482 15.624 117.482 14.328V7.008H115.922V4.776H117.482V1.488H120.242V4.776H123.458V7.008H120.242ZM137.956 4.776V18H135.22V16.44C134.788 16.984 134.22 17.416 133.516 17.736C132.828 18.04 132.092 18.192 131.308 18.192C130.268 18.192 129.332 17.976 128.5 17.544C127.684 17.112 127.036 16.472 126.556 15.624C126.092 14.776 125.86 13.752 125.86 12.552V4.776H128.572V12.144C128.572 13.328 128.868 14.24 129.46 14.88C130.052 15.504 130.86 15.816 131.884 15.816C132.908 15.816 133.716 15.504 134.308 14.88C134.916 14.24 135.22 13.328 135.22 12.144V4.776H137.956ZM140.654 11.328C140.654 10 140.926 8.824 141.47 7.8C142.03 6.776 142.782 5.984 143.726 5.424C144.686 4.848 145.742 4.56 146.894 4.56C147.934 4.56 148.838 4.768 149.606 5.184C150.39 5.584 151.014 6.088 151.478 6.696V4.776H154.238V18H151.478V16.032C151.014 16.656 150.382 17.176 149.582 17.592C148.782 18.008 147.87 18.216 146.846 18.216C145.71 18.216 144.67 17.928 143.726 17.352C142.782 16.76 142.03 15.944 141.47 14.904C140.926 13.848 140.654 12.656 140.654 11.328ZM151.478 11.376C151.478 10.464 151.286 9.672 150.902 9C150.534 8.328 150.046 7.816 149.438 7.464C148.83 7.112 148.174 6.936 147.47 6.936C146.766 6.936 146.11 7.112 145.502 7.464C144.894 7.8 144.398 8.304 144.014 8.976C143.646 9.632 143.462 10.416 143.462 11.328C143.462 12.24 143.646 13.04 144.014 13.728C144.398 14.416 144.894 14.944 145.502 15.312C146.126 15.664 146.782 15.84 147.47 15.84C148.174 15.84 148.83 15.664 149.438 15.312C150.046 14.96 150.534 14.448 150.902 13.776C151.286 13.088 151.478 12.288 151.478 11.376ZM160.567 0.24V18H157.831V0.24H160.567Z" fill="black"/>
</svg>
