<svg width="60" height="60" viewBox="0 0 60 60" fill="none" xmlns="http://www.w3.org/2000/svg">
<path d="M36.825 6.11251C35.2312 5.65313 33.5719 6.58126 33.1125 8.17501L21.1125 50.175C20.6531 51.7688 21.5812 53.4281 23.175 53.8875C24.7687 54.3469 26.4281 53.4188 26.8875 51.825L38.8875 9.82501C39.3469 8.23126 38.4187 6.57188 36.825 6.11251ZM44.3812 17.3719C43.2094 18.5438 43.2094 20.4469 44.3812 21.6188L52.7531 30L44.3718 38.3813C43.2 39.5531 43.2 41.4563 44.3718 42.6281C45.5437 43.8 47.4468 43.8 48.6187 42.6281L59.1187 32.1281C60.2906 30.9563 60.2906 29.0531 59.1187 27.8813L48.6187 17.3813C47.4468 16.2094 45.5437 16.2094 44.3718 17.3813L44.3812 17.3719ZM15.6281 17.3719C14.4562 16.2 12.5531 16.2 11.3812 17.3719L0.881226 27.8719C-0.290649 29.0438 -0.290649 30.9469 0.881226 32.1188L11.3812 42.6188C12.5531 43.7906 14.4562 43.7906 15.6281 42.6188C16.8 41.4469 16.8 39.5438 15.6281 38.3719L7.24685 30L15.6281 21.6188C16.8 20.4469 16.8 18.5438 15.6281 17.3719Z" fill="#0E5642"/>
</svg>
