<svg width="63" height="50" viewBox="0 0 63 50" fill="none" xmlns="http://www.w3.org/2000/svg">
<path d="M9.18624 14.4715C9.18676 11.9764 9.83124 9.52382 11.0572 7.35172C12.2831 5.17962 14.0488 3.36179 16.1829 2.07465C18.3171 0.787505 20.7472 0.0747556 23.2374 0.00556711C25.7277 -0.0636214 28.1935 0.513101 30.3956 1.67977C32.5977 2.84643 34.4613 4.56342 35.8056 6.66412C37.1498 8.76481 37.9291 11.1779 38.0677 13.6691C38.2063 16.1604 37.6996 18.6452 36.5968 20.8825C35.4939 23.1198 33.8323 25.0335 31.7733 26.4381C36.2074 28.0669 40.0534 30.9876 42.8163 34.8241C45.5791 38.6606 47.1324 43.2375 47.2763 47.9657C47.2702 48.4754 47.0676 48.9631 46.7109 49.3269C46.3543 49.6906 45.8711 49.9022 45.3623 49.9175C44.8535 49.9327 44.3585 49.7505 43.9807 49.4089C43.6029 49.0672 43.3715 48.5926 43.3349 48.0841C43.1784 42.956 41.0345 38.0905 37.3575 34.5186C33.6804 30.9466 28.7593 28.949 23.6369 28.949C18.5144 28.949 13.5933 30.9466 9.91626 34.5186C6.23925 38.0905 4.09534 42.956 3.93887 48.0841C3.91256 48.5995 3.68577 49.084 3.30708 49.434C2.92839 49.7839 2.42792 49.9714 1.9129 49.9563C1.39787 49.9411 0.909246 49.7246 0.551704 49.353C0.194161 48.9814 -0.00386236 48.4843 5.70925e-05 47.9683C0.143398 43.2397 1.69647 38.6622 4.45936 34.8252C7.22226 30.9881 11.0685 28.0671 15.503 26.4381C13.5555 25.1107 11.9618 23.3263 10.8607 21.2406C9.75972 19.1548 9.18484 16.8309 9.18624 14.4715ZM23.6382 3.94459C20.8506 3.94459 18.1772 5.05368 16.2061 7.02786C14.235 9.00205 13.1277 11.6796 13.1277 14.4715C13.1277 17.2635 14.235 19.941 16.2061 21.9152C18.1772 23.8894 20.8506 24.9985 23.6382 24.9985C26.4257 24.9985 29.0991 23.8894 31.0702 21.9152C33.0413 19.941 34.1487 17.2635 34.1487 14.4715C34.1487 11.6796 33.0413 9.00205 31.0702 7.02786C29.0991 5.05368 26.4257 3.94459 23.6382 3.94459ZM45.4212 14.4715C45.0323 14.4715 44.6539 14.4979 44.2808 14.5505C44.0203 14.5972 43.7531 14.5909 43.495 14.5319C43.237 14.473 42.9935 14.3626 42.779 14.2073C42.5645 14.052 42.3835 13.8551 42.2466 13.6282C42.1098 13.4013 42.02 13.1491 41.9825 12.8867C41.9451 12.6243 41.9608 12.3571 42.0288 12.1009C42.0967 11.8447 42.2155 11.6048 42.378 11.3956C42.5405 11.1864 42.7434 11.0121 42.9746 10.8832C43.2058 10.7542 43.4606 10.6732 43.7237 10.645C46.3371 10.2666 49.0019 10.7692 51.2988 12.0738C53.5957 13.3784 55.3943 15.411 56.4115 17.8516C57.4287 20.2921 57.6068 23.0022 56.9177 25.5552C56.2286 28.1082 54.7115 30.3593 52.6051 31.9542C55.7015 33.3428 58.3305 35.5991 60.175 38.451C62.0195 41.3028 63.0006 44.6283 63 48.0262C63 48.5497 62.7924 49.0517 62.4228 49.4219C62.0532 49.792 61.552 50 61.0293 50C60.5066 50 60.0054 49.792 59.6358 49.4219C59.2662 49.0517 59.0586 48.5497 59.0586 48.0262C59.0583 45.0896 58.1135 42.2311 56.3643 39.8743C54.6151 37.5175 52.1544 35.7877 49.3469 34.9412L47.9437 34.5201V30.1093L49.021 29.5593C50.618 28.7491 51.8957 27.4235 52.648 25.7965C53.4002 24.1696 53.5831 22.3362 53.167 20.5923C52.7509 18.8485 51.7602 17.296 50.3548 16.1854C48.9494 15.0748 47.2113 14.4711 45.4212 14.4715Z" fill="#0E5642"/>
</svg>
